<svg width="24" height="24" viewBox="0 0 24 24" fill="none" xmlns="http://www.w3.org/2000/svg">
<g clip-path="url(#clip0_826_828)">
<path d="M2 9H9V2H2V9ZM11 10L10.9951 10.1025C10.9472 10.573 10.573 10.9472 10.1025 10.9951L10 11H1L0.897461 10.9951C0.427034 10.9472 0.0527828 10.573 0.00488281 10.1025L0 10V1C0 0.482323 0.393331 0.0562144 0.897461 0.00488281L1 0H10L10.1025 0.00488281C10.6067 0.0562143 11 0.482323 11 1V10Z" fill="#4E4E4E"/>
<path d="M2 22H9V15H2V22ZM11 23L10.9951 23.1025C10.9472 23.573 10.573 23.9472 10.1025 23.9951L10 24H1L0.897461 23.9951C0.427034 23.9472 0.0527828 23.573 0.00488281 23.1025L0 23V14C0 13.4823 0.393331 13.0562 0.897461 13.0049L1 13H10L10.1025 13.0049C10.6067 13.0562 11 13.4823 11 14V23Z" fill="#4E4E4E"/>
<path d="M15 9H22V2H15V9ZM24 10L23.9951 10.1025C23.9472 10.573 23.573 10.9472 23.1025 10.9951L23 11H14L13.8975 10.9951C13.427 10.9472 13.0528 10.573 13.0049 10.1025L13 10V1C13 0.482323 13.3933 0.0562144 13.8975 0.00488281L14 0H23L23.1025 0.00488281C23.6067 0.0562143 24 0.482323 24 1V10Z" fill="#4E4E4E"/>
<path d="M14 18C14 17.4477 14.4477 17 15 17H22C22.5523 17 23 17.4477 23 18V18C23 18.5523 22.5523 19 22 19H15C14.4477 19 14 18.5523 14 18V18Z" fill="#4E4E4E"/>
</g>
<defs>
<clipPath id="clip0_826_828">
<rect width="24" height="24" fill="white"/>
</clipPath>
</defs>
</svg>
