<svg width="24" height="24" viewBox="0 0 24 24" fill="none" xmlns="http://www.w3.org/2000/svg">
<g clip-path="url(#clip0_826_848)">
<mask id="path-1-inside-1_826_848" fill="white">
<path d="M14.5469 0.107895C14.7496 0.107969 14.8968 0.18032 15.0028 0.313715C15.1498 0.498713 15.1728 0.748778 15.2057 0.982742L15.4251 2.54128C15.5302 3.28805 16.0144 3.90007 16.6672 4.27761V4.27761C17.2945 4.64037 18.0645 4.76528 18.7397 4.50228L20.6797 3.74657C21.021 3.63957 21.2531 3.71161 21.4238 3.97313L23.8867 8.09911C24.0696 8.43208 24.0329 8.69399 23.7646 8.88426L22.1464 10.0959C21.5651 10.5312 21.2529 11.2743 21.2529 12.0005V12.0005V12.0005C21.2529 12.7264 21.5637 13.4694 22.1435 13.9062L23.7646 15.1274C24.0329 15.3058 24.0696 15.5679 23.8867 15.9009L21.4238 20.0268C21.2531 20.2883 21.021 20.3604 20.6797 20.2534L18.7146 19.4879C18.053 19.2302 17.1999 19.4069 16.5853 19.7625V19.7625C15.9203 20.1474 15.5285 20.7237 15.4214 21.4846L15.2049 23.023C15.1725 23.2531 15.1493 23.4983 15.0064 23.6816C14.9002 23.818 14.7519 23.892 14.5469 23.8921H9.66894C9.46631 23.8919 9.31902 23.8196 9.21301 23.6862C9.06605 23.5012 9.04304 23.2512 9.01012 23.0173L8.71362 20.9108C8.65629 20.5035 8.39399 20.1661 8.02673 19.9808V19.9808C7.35936 19.6442 7.30217 18.74 7.85767 18.2398V18.2398C8.24781 17.8886 8.82293 17.8484 9.29901 18.0696C10.1531 18.4664 11.1045 18.6889 12.1084 18.6889C15.8024 18.6887 18.7966 15.6945 18.7969 12.0005C18.7969 8.30623 15.8026 5.31128 12.1084 5.31102C11.0712 5.31107 10.0892 5.54729 9.21314 5.96872C8.72191 6.20501 8.1219 6.15542 7.73657 5.76986V5.76986C7.22931 5.2623 7.30453 4.40694 7.93712 4.06818C7.95514 4.05853 7.97308 4.04901 7.99093 4.03961C8.37116 3.83941 8.65811 3.48357 8.718 3.05805L9.01094 0.976832C9.04331 0.746802 9.06656 0.50168 9.20936 0.318458C9.31563 0.182096 9.46397 0.108045 9.66894 0.107895H14.5469Z"/>
</mask>
<path d="M14.5469 0.107895L14.5476 -1.89211H14.5469V0.107895ZM20.6797 3.74657L20.0815 1.83813L20.0168 1.85839L19.9537 1.88296L20.6797 3.74657ZM21.4238 3.97313L23.1411 2.94803L23.1206 2.91357L23.0986 2.87998L21.4238 3.97313ZM23.8867 8.09911L25.6397 7.13624L25.6224 7.1048L25.604 7.074L23.8867 8.09911ZM23.7646 8.88426L22.6075 7.25298L22.5865 7.26788L22.5659 7.28331L23.7646 8.88426ZM23.7646 15.1274L22.5613 16.7249L22.6082 16.7603L22.6572 16.7928L23.7646 15.1274ZM23.8867 15.9009L25.604 16.926L25.6224 16.8952L25.6397 16.8637L23.8867 15.9009ZM21.4238 20.0268L23.0986 21.12L23.1206 21.0864L23.1411 21.0519L21.4238 20.0268ZM20.6797 20.2534L19.9537 22.117L20.0168 22.1416L20.0814 22.1618L20.6797 20.2534ZM14.5469 23.8921L14.5469 25.8921L14.5476 25.8921L14.5469 23.8921ZM9.66894 23.8921L9.66747 25.8921H9.66894V23.8921ZM12.1084 18.6889L12.1083 20.6889L12.1085 20.6889L12.1084 18.6889ZM18.7969 12.0005L20.7969 12.0006V12.0005H18.7969ZM12.1084 5.31102L12.1085 3.31102L12.1083 3.31102L12.1084 5.31102ZM9.66894 0.107895L9.66894 -1.89211L9.66747 -1.8921L9.66894 0.107895ZM7.93712 4.06818L6.99295 2.30507L7.93712 4.06818ZM9.29901 18.0696L8.45627 19.8833L9.29901 18.0696ZM9.21301 23.6862L10.7788 22.4418L9.21301 23.6862ZM9.01012 23.0173L7.02964 23.2961L9.01012 23.0173ZM15.2049 23.023L13.2244 22.7443L15.2049 23.023ZM15.0064 23.6816L13.4288 22.4523L15.0064 23.6816ZM18.7146 19.4879L19.4405 17.6243L18.7146 19.4879ZM8.71362 20.9108L6.73314 21.1896L8.71362 20.9108ZM18.7397 4.50228L18.0137 2.63867L18.7397 4.50228ZM15.0028 0.313715L13.4368 1.55779L15.0028 0.313715ZM15.2057 0.982742L13.2252 1.2615L15.2057 0.982742ZM14.5469 0.107895L14.5461 2.10789C14.4068 2.10784 14.201 2.0819 13.9735 1.97697C13.7408 1.86966 13.5615 1.7147 13.4368 1.55779L15.0028 0.313715L16.5688 -0.930355C16.0514 -1.58163 15.3064 -1.89183 14.5476 -1.8921L14.5469 0.107895ZM15.2057 0.982742L13.2252 1.2615L13.4446 2.82004L15.4251 2.54128L17.4056 2.26253L17.1862 0.703985L15.2057 0.982742ZM18.7397 4.50228L19.4656 6.36588L21.4056 5.61017L20.6797 3.74657L19.9537 1.88296L18.0137 2.63867L18.7397 4.50228ZM20.6797 3.74657L21.2779 5.655C21.2216 5.67264 20.9272 5.75546 20.5308 5.63419C20.0983 5.50191 19.8515 5.22328 19.749 5.06628L21.4238 3.97313L23.0986 2.87998C22.8255 2.46146 22.3773 2.01605 21.7007 1.80912C21.0602 1.6132 20.4791 1.71349 20.0815 1.83813L20.6797 3.74657ZM21.4238 3.97313L19.7065 4.99823L22.1694 9.12421L23.8867 8.09911L25.604 7.074L23.1411 2.94803L21.4238 3.97313ZM23.8867 8.09911L22.1337 9.06197C22.1066 9.0126 21.9475 8.70688 22.0175 8.24532C22.0969 7.72122 22.4069 7.39526 22.6075 7.25298L23.7646 8.88426L24.9218 10.5155C25.3906 10.183 25.8531 9.63094 25.9722 8.84508C26.0819 8.12175 25.8497 7.51859 25.6397 7.13624L23.8867 8.09911ZM23.7646 8.88426L22.5659 7.28331L20.9477 8.495L22.1464 10.0959L23.3451 11.6969L24.9634 10.4852L23.7646 8.88426ZM22.1435 13.9062L20.9401 15.5037L22.5613 16.7249L23.7646 15.1274L24.968 13.53L23.3469 12.3088L22.1435 13.9062ZM23.7646 15.1274L22.6572 16.7928C22.4283 16.6406 22.1009 16.3 22.018 15.7593C21.9463 15.2922 22.1083 14.9844 22.1337 14.938L23.8867 15.9009L25.6397 16.8637C25.8481 16.4844 26.0831 15.879 25.9718 15.153C25.8491 14.3534 25.3692 13.7926 24.8721 13.462L23.7646 15.1274ZM23.8867 15.9009L22.1694 14.8758L19.7065 19.0017L21.4238 20.0268L23.1411 21.0519L25.604 16.926L23.8867 15.9009ZM21.4238 20.0268L19.749 18.9336C19.8515 18.7766 20.0983 18.4981 20.5307 18.3658C20.9272 18.2445 21.2216 18.3273 21.2779 18.345L20.6797 20.2534L20.0814 22.1618C20.4791 22.2865 21.0602 22.3868 21.7008 22.1908C22.3772 21.9839 22.8254 21.5385 23.0986 21.12L21.4238 20.0268ZM20.6797 20.2534L21.4056 18.3898L19.4405 17.6243L18.7146 19.4879L17.9887 21.3515L19.9537 22.117L20.6797 20.2534ZM15.4214 21.4846L13.4409 21.2059L13.2244 22.7443L15.2049 23.023L17.1854 23.3018L17.4019 21.7634L15.4214 21.4846ZM15.0064 23.6816L13.4288 22.4523C13.5516 22.2948 13.7307 22.1366 13.966 22.0265C14.1962 21.9188 14.405 21.8921 14.5461 21.8921L14.5469 23.8921L14.5476 25.8921C15.3179 25.8918 16.0687 25.5723 16.584 24.9109L15.0064 23.6816ZM14.5469 23.8921V21.8921H9.66894V23.8921V25.8921H14.5469V23.8921ZM9.66894 23.8921L9.67041 21.8921C9.80983 21.8922 10.0154 21.9182 10.2426 22.023C10.475 22.1302 10.6542 22.285 10.7788 22.4418L9.21301 23.6862L7.64724 24.9305C8.16446 25.5813 8.90906 25.8915 9.66747 25.8921L9.66894 23.8921ZM9.01012 23.0173L10.9906 22.7386L10.6941 20.6321L8.71362 20.9108L6.73314 21.1896L7.02964 23.2961L9.01012 23.0173ZM9.29901 18.0696L8.45627 19.8833C9.56759 20.3997 10.8059 20.6889 12.1083 20.6889L12.1084 18.6889L12.1085 16.6889C11.4031 16.6889 10.7387 16.5331 10.1417 16.2558L9.29901 18.0696ZM12.1084 18.6889L12.1085 20.6889C16.907 20.6886 20.7965 16.7991 20.7969 12.0006L18.7969 12.0005L16.7969 12.0003C16.7967 14.5899 14.6978 16.6888 12.1083 16.6889L12.1084 18.6889ZM18.7969 12.0005H20.7969C20.7969 7.2019 16.9074 3.31136 12.1085 3.31102L12.1084 5.31102L12.1083 7.31102C14.6977 7.3112 16.7969 9.41056 16.7969 12.0005H18.7969ZM12.1084 5.31102L12.1083 3.31102C10.7645 3.31108 9.48679 3.61773 8.34617 4.1664L9.21314 5.96872L10.0801 7.77104C10.6917 7.47686 11.378 7.31105 12.1085 7.31102L12.1084 5.31102ZM7.93712 4.06818L8.88129 5.83129C8.89525 5.82381 8.90906 5.81648 8.92271 5.8093L7.99093 4.03961L7.05916 2.26992C7.0371 2.28153 7.01504 2.29325 6.99295 2.30507L7.93712 4.06818ZM8.718 3.05805L10.6985 3.33681L10.9914 1.25559L9.01094 0.976832L7.03046 0.698075L6.73752 2.77929L8.718 3.05805ZM9.20936 0.318458L10.7868 1.5479C10.6641 1.70542 10.4852 1.86339 10.2502 1.97341C10.0202 2.08108 9.81161 2.10779 9.67041 2.10789L9.66894 0.107895L9.66747 -1.8921C8.89749 -1.89154 8.14705 -1.57202 7.63186 -0.910982L9.20936 0.318458ZM9.66894 0.107895V2.10789H14.5469V0.107895V-1.89211H9.66894V0.107895ZM9.01094 0.976832L10.9914 1.25559C10.9958 1.22425 11.0014 1.18291 11.0041 1.16348C11.0077 1.13783 11.0101 1.12079 11.0122 1.10717C11.0166 1.07845 11.0167 1.08396 11.0111 1.10665C11.0009 1.14853 10.951 1.33732 10.7868 1.5479L9.20936 0.318458L7.63186 -0.910982C7.0844 -0.20853 7.03174 0.688933 7.03046 0.698075L9.01094 0.976832ZM7.99093 4.03961L8.92271 5.8093C9.77382 5.36117 10.5346 4.50125 10.6985 3.33681L8.718 3.05805L6.73752 2.77929C6.78163 2.46588 6.9685 2.31765 7.05916 2.26992L7.99093 4.03961ZM7.73657 5.76986L9.1512 4.35606C9.33575 4.54072 9.42668 4.80302 9.39787 5.07017C9.36731 5.35353 9.19393 5.66387 8.88129 5.83129L7.93712 4.06818L6.99295 2.30507C5.02408 3.35943 4.99344 5.85437 6.32194 7.18365L7.73657 5.76986ZM9.21314 5.96872L8.34617 4.1664C8.43008 4.12604 8.53936 4.10069 8.67275 4.11665C8.81456 4.13362 8.99681 4.20158 9.1512 4.35606L7.73657 5.76986L6.32194 7.18365C7.41857 8.28093 8.97419 8.30302 10.0801 7.77104L9.21314 5.96872ZM7.85767 18.2398L9.19587 19.7262C9.04749 19.8598 8.88135 19.9159 8.75373 19.9292C8.63277 19.9418 8.53355 19.9193 8.45627 19.8833L9.29901 18.0696L10.1417 16.2558C9.07367 15.7595 7.60857 15.7729 6.51946 16.7535L7.85767 18.2398ZM8.02673 19.9808L8.92748 18.1952C9.26746 18.3667 9.45085 18.7031 9.47634 19.0012C9.50005 19.2783 9.39597 19.546 9.19587 19.7262L7.85767 18.2398L6.51946 16.7535C5.08835 18.042 5.00556 20.6969 7.12598 21.7665L8.02673 19.9808ZM9.21301 23.6862L10.7788 22.4418C10.9492 22.6563 11.0006 22.8503 11.011 22.8926C11.0166 22.9156 11.0165 22.921 11.0119 22.8913C11.0098 22.8772 11.0073 22.8596 11.0036 22.8332C11.0008 22.8124 10.9952 22.7716 10.9906 22.7386L9.01012 23.0173L7.02964 23.2961C7.03002 23.2988 7.08204 24.2193 7.64724 24.9305L9.21301 23.6862ZM15.2049 23.023L13.2244 22.7443C13.22 22.7756 13.2144 22.817 13.2117 22.8364C13.2082 22.8621 13.2057 22.8791 13.2036 22.8928C13.1992 22.9215 13.1991 22.916 13.2047 22.8934C13.2149 22.8516 13.2648 22.6629 13.4288 22.4523L15.0064 23.6816L16.584 24.9109C17.1314 24.2084 17.1841 23.311 17.1854 23.3018L15.2049 23.023ZM16.5853 19.7625L15.5836 18.0314C14.3915 18.7213 13.6346 19.8304 13.4409 21.2059L15.4214 21.4846L17.4019 21.7634C17.4173 21.6539 17.4434 21.6139 17.4504 21.6036C17.4578 21.5927 17.487 21.5514 17.5871 21.4936L16.5853 19.7625ZM18.7146 19.4879L19.4405 17.6243C18.0256 17.0732 16.5213 17.4888 15.5836 18.0314L16.5853 19.7625L17.5871 21.4936C17.6842 21.4374 17.8136 21.3905 17.9315 21.3727C18.0556 21.3539 18.0644 21.381 17.9887 21.3515L18.7146 19.4879ZM8.71362 20.9108L10.6941 20.6321C10.5368 19.5143 9.82191 18.6463 8.92748 18.1952L8.02673 19.9808L7.12598 21.7665C6.96606 21.6859 6.77581 21.4927 6.73314 21.1896L8.71362 20.9108ZM21.2529 12.0005L19.2529 12.0005C19.2529 13.2409 19.7744 14.6255 20.9401 15.5037L22.1435 13.9062L23.3469 12.3088C23.3561 12.3157 23.3316 12.3004 23.3022 12.2356C23.2722 12.1695 23.2529 12.0845 23.2529 12.0005L21.2529 12.0005ZM22.1464 10.0959L20.9477 8.495C19.7776 9.3711 19.2529 10.7577 19.2529 12.0005H21.2529H23.2529C23.2529 11.9175 23.272 11.8334 23.3018 11.768C23.331 11.704 23.3551 11.6895 23.3451 11.6969L22.1464 10.0959ZM16.6672 4.27761L15.6659 6.00893C16.6958 6.6045 18.1039 6.89629 19.4656 6.36588L18.7397 4.50228L18.0137 2.63867C18.0198 2.63631 17.9963 2.64776 17.9296 2.63956C17.8596 2.63096 17.766 2.60271 17.6685 2.5463L16.6672 4.27761ZM15.4251 2.54128L13.4446 2.82004C13.6516 4.29051 14.5898 5.38656 15.6659 6.00893L16.6672 4.27761L17.6685 2.5463C17.439 2.41357 17.4088 2.28559 17.4056 2.26253L15.4251 2.54128ZM15.0028 0.313715L13.4368 1.55779C13.2665 1.34338 13.2152 1.14949 13.2048 1.10725C13.1992 1.08432 13.1993 1.07892 13.2039 1.10868C13.2061 1.12281 13.2086 1.14036 13.2122 1.16678C13.2151 1.18763 13.2206 1.22847 13.2252 1.2615L15.2057 0.982742L17.1862 0.703985C17.1858 0.701254 17.1338 -0.219173 16.5688 -0.930355L15.0028 0.313715Z" fill="#4E4E4E" mask="url(#path-1-inside-1_826_848)"/>
<path fill-rule="evenodd" clip-rule="evenodd" d="M14.7919 12C14.7919 12.6132 14.2948 13.1102 13.6816 13.1102H1.12086C0.507695 13.1102 0.0106297 12.6132 0.0106301 12C0.0106298 11.3869 0.507695 10.8898 1.12086 10.8898H13.6816C14.2948 10.8898 14.7919 11.3869 14.7919 12Z" fill="#4E4E4E"/>
<path fill-rule="evenodd" clip-rule="evenodd" d="M8.97167 7.28957C9.40524 6.85599 10.1082 6.85599 10.5418 7.28957L14.467 11.2148C14.9006 11.6484 14.9006 12.3513 14.467 12.7849L10.5418 16.7101C10.1082 17.1437 9.40524 17.1437 8.97167 16.7101C8.53809 16.2766 8.53809 15.5736 8.97167 15.1401L12.1119 11.9999L8.97167 8.85966C8.53809 8.42609 8.53809 7.72314 8.97167 7.28957Z" fill="#4E4E4E"/>
</g>
<defs>
<clipPath id="clip0_826_848">
<rect width="24" height="24" fill="white"/>
</clipPath>
</defs>
</svg>
