<svg width="24" height="24" viewBox="0 0 24 24" fill="none" xmlns="http://www.w3.org/2000/svg">
<g clip-path="url(#clip0_826_833)">
<path d="M22.202 20.8695H20.785C20.9634 21.1765 21.0655 21.5329 21.0655 21.9131C21.0655 23.0656 20.1271 24 18.9694 24C17.8118 24 16.8734 23.0656 16.8734 21.9131C16.8734 21.5329 16.9755 21.1765 17.1538 20.8695H11.3527C11.5311 21.1765 11.6332 21.5329 11.6332 21.9131C11.6332 23.0656 10.6947 24 9.53711 24C8.37948 24 7.44104 23.0656 7.44104 21.9131C7.44104 21.2958 7.71017 20.7412 8.13796 20.3591C7.04183 19.7589 6.24488 18.6712 5.9738 17.3217L3.66812 3.02608C3.66812 2.50434 3.1441 2.08695 2.62009 2.08695H1.04803C0.419214 2.08695 0 1.66956 0 1.04347C0 0.41739 0.419214 0 1.04803 0H2.62009C4.19214 0 5.44978 1.14782 5.76419 2.60869L6.18189 5.21742L7.85267 15.6522L8.06987 17.0086C8.27947 18.0521 9.1179 18.7825 10.1659 18.7825H22.202C22.8308 18.7825 23.25 19.1999 23.25 19.826C23.25 20.4521 22.8308 20.8695 22.202 20.8695Z" fill="#4E4E4E"/>
<path d="M11 15H21V11H11V15ZM23 16C23 16.5177 22.6067 16.9438 22.1025 16.9951L22 17H10L9.89746 16.9951C9.39333 16.9438 9 16.5177 9 16V10C9 9.48232 9.39333 9.05621 9.89746 9.00488L10 9H22L22.1025 9.00488C22.6067 9.05621 23 9.48232 23 10V16Z" fill="#4E4E4E"/>
<path d="M11 6H21V2H11V6ZM23 7C23 7.51768 22.6067 7.94379 22.1025 7.99512L22 8H10L9.89746 7.99512C9.39333 7.94379 9 7.51768 9 7V1C9 0.482323 9.39333 0.0562145 9.89746 0.00488281L10 0H22L22.1025 0.00488281C22.6067 0.0562146 23 0.482323 23 1V7Z" fill="#4E4E4E"/>
</g>
<defs>
<clipPath id="clip0_826_833">
<rect width="24" height="24" fill="white"/>
</clipPath>
</defs>
</svg>
