<svg width="24" height="24" viewBox="0 0 24 24" fill="none" xmlns="http://www.w3.org/2000/svg">
<g clip-path="url(#clip0_826_840)">
<path d="M22 5L24 5L24 22L22 22L22 5ZM2 5L2 22L24 22L23.9893 22.2041C23.8938 23.1457 23.1457 23.8938 22.2041 23.9893L22 24L2 24C0.964349 24 0.113005 23.2128 0.0107421 22.2041L-8.74228e-08 22L-8.30516e-07 5L0.0107413 4.7959C0.113004 3.78722 0.964348 3 2 3L22 3L22.2041 3.01074C23.1457 3.1062 23.8938 3.85435 23.9893 4.7959L24 5L2 5Z" fill="#4E4E4E"/>
<path fill-rule="evenodd" clip-rule="evenodd" d="M11.2821 21H13.0909V19.1754C14.0606 18.9766 14.7879 18.576 15.2727 17.9737C15.7576 17.3713 16 16.6491 16 15.807C16 15.2456 15.8788 14.7749 15.6364 14.3947C15.3939 14.0146 15.0894 13.6901 14.7226 13.4211C14.3559 13.152 13.9612 12.924 13.5385 12.7368C13.1158 12.5497 12.7211 12.3684 12.3543 12.193C11.9876 12.0175 11.683 11.8333 11.4406 11.6404C11.1981 11.4474 11.0769 11.2105 11.0769 10.9298C11.0769 10.5322 11.195 10.2456 11.4312 10.0702C11.6674 9.89474 12.0093 9.80702 12.4569 9.80702C12.8547 9.80702 13.209 9.88012 13.5198 10.0263C13.8306 10.1725 14.1538 10.3918 14.4895 10.6842L15.8695 9.21053C15.5089 8.84795 15.1049 8.53801 14.6573 8.2807C14.2098 8.02339 13.6877 7.8538 13.0909 7.77193V6H11.2821V7.80702C10.3994 7.97076 9.7063 8.33625 9.2028 8.90351C8.6993 9.47076 8.44755 10.1871 8.44755 11.0526C8.44755 11.5789 8.56877 12.0234 8.81119 12.386C9.05362 12.7485 9.3582 13.0643 9.72494 13.3333C10.0917 13.6023 10.4864 13.8333 10.9091 14.0263C11.3318 14.2193 11.7265 14.4123 12.0932 14.6053C12.46 14.7982 12.7646 15 13.007 15.2105C13.2494 15.4211 13.3706 15.6784 13.3706 15.9825C13.3706 16.3918 13.2494 16.6959 13.007 16.8947C12.7646 17.0936 12.3823 17.193 11.8601 17.193C11.4126 17.193 10.9744 17.1082 10.5455 16.9386C10.1165 16.769 9.66589 16.5146 9.19347 16.1754L8 17.9123C8.43512 18.2866 8.95416 18.5877 9.55711 18.8158C10.1601 19.0439 10.735 19.1871 11.2821 19.2456V21Z" fill="#4E4E4E"/>
<path d="M15 2L9 2L9 5L7 5L7 2C7 0.895431 7.89543 -3.91405e-08 9 -8.74228e-08L15 -3.49691e-07C16.1046 -3.97973e-07 17 0.89543 17 2L17 5L15 5L15 2Z" fill="#4E4E4E"/>
</g>
<defs>
<clipPath id="clip0_826_840">
<rect width="24" height="24" fill="white"/>
</clipPath>
</defs>
</svg>
