<svg width="24" height="24" viewBox="0 0 24 24" fill="none" xmlns="http://www.w3.org/2000/svg">
<path fill-rule="evenodd" clip-rule="evenodd" d="M12.4223 3.10467C11.9619 2.86816 11.3758 3.04706 11.1217 3.58281L9.57015 6.85484C9.14369 7.75419 8.30858 8.3969 7.32011 8.54639L3.85072 9.07108C3.64537 9.10214 3.44871 9.2037 3.29399 9.3689C2.89432 9.79564 2.90385 10.4933 3.3122 10.9076L5.82268 13.4545C6.52049 14.1625 6.82997 15.1703 6.66861 16.1495L6.07597 19.7458C6.03632 19.9864 6.07456 20.2325 6.1815 20.4442C6.44749 20.9708 7.03626 21.1354 7.49215 20.8859L10.5953 19.188C11.4732 18.7076 12.5266 18.7076 13.4045 19.188L16.5076 20.8859C16.6961 20.9891 16.9079 21.023 17.1123 20.9865C17.6213 20.8957 18.026 20.3664 17.9238 19.7458L17.3311 16.1495C17.1698 15.1703 17.4792 14.1625 18.1771 13.4545L20.6875 10.9076C20.8464 10.7465 20.955 10.5295 20.9887 10.2879C21.0757 9.66472 20.6585 9.14813 20.149 9.07108L16.6796 8.54639C15.6912 8.3969 14.8561 7.75419 14.4296 6.85484L12.878 3.58281C12.7763 3.36831 12.6135 3.20289 12.4223 3.10467ZM9.31458 2.72589C10.0318 1.21334 11.8285 0.551252 13.3361 1.32564C13.9286 1.62997 14.4001 2.12475 14.6852 2.72589L16.2367 5.99792C16.3891 6.31925 16.6729 6.52262 16.9787 6.56887L20.4481 7.09357C22.1105 7.34498 23.1981 8.92711 22.9695 10.5644C22.8775 11.2229 22.5789 11.8378 22.1119 12.3116L19.6014 14.8585C19.3627 15.1007 19.2448 15.4618 19.3045 15.8243L19.8972 19.4206C20.1659 21.0514 19.1178 22.6601 17.4638 22.9554C16.8068 23.0727 16.1326 22.9606 15.5476 22.6405L12.4444 20.9425C12.1647 20.7894 11.835 20.7894 11.5553 20.9425L8.45218 22.6405C6.9655 23.4539 5.15161 22.8412 4.39633 21.346C4.0966 20.7526 3.9945 20.0765 4.10259 19.4206L4.69523 15.8243C4.75496 15.4618 4.63707 15.1007 4.39831 14.8585L1.88784 12.3116C0.724622 11.1315 0.70199 9.21068 1.83423 8.00175C2.28951 7.51562 2.89215 7.19331 3.55165 7.09357L7.02104 6.56887C7.32688 6.52262 7.61066 6.31925 7.76303 5.99793L9.31458 2.72589Z" fill="#4E4E4E"/>
</svg>
