<svg width="24" height="24" viewBox="0 0 24 24" fill="none" xmlns="http://www.w3.org/2000/svg">
<g clip-path="url(#clip0_826_844)">
<path fill-rule="evenodd" clip-rule="evenodd" d="M12.0225 1.05235C12.2382 0.979656 12.4728 0.982746 12.6865 1.06114L23.0596 4.86485C23.7217 5.04226 24.042 5.29949 24.042 5.86485V18.2496L24.0293 18.4068C23.9801 18.7156 23.7886 18.9844 23.5127 19.1315L23.3682 19.1949L12.5117 22.94C12.3637 23.0192 12.1961 23.0612 12.0215 23.0572C11.8444 23.0613 11.6739 23.0194 11.5244 22.9381L0.674805 19.194C0.271717 19.0549 0.00118025 18.676 0.000976562 18.2496L0 5.86485C0.000225078 5.26009 0.516535 4.93391 1.02734 4.76134L12.0225 1.05235ZM2.00098 17.5377L11 20.6432V10.3736L2 7.26915L2.00098 17.5377ZM13.042 10.3717V20.6402L22.042 17.5358V7.26622L13.042 10.3717ZM4.47363 5.70958L12.2178 8.32774L19.7236 5.77208L12.3271 3.06016L4.47363 5.70958Z" fill="#4E4E4E"/>
</g>
<defs>
<clipPath id="clip0_826_844">
<rect width="24" height="24" fill="white"/>
</clipPath>
</defs>
</svg>
